<?xml version="1.0" encoding="utf-8"?>
<!-- Generator: Adobe Illustrator 16.0.0, SVG Export Plug-In . SVG Version: 6.00 Build 0)  -->
<!DOCTYPE svg PUBLIC "-//W3C//DTD SVG 1.1//EN" "http://www.w3.org/Graphics/SVG/1.1/DTD/svg11.dtd">
<svg version="1.1" id="Capa_1" xmlns="http://www.w3.org/2000/svg" xmlns:xlink="http://www.w3.org/1999/xlink" x="0px" y="0px"
	 width="556.667px" height="87.333px" viewBox="0 0 556.667 87.333" enable-background="new 0 0 556.667 87.333"
	 xml:space="preserve">
<g>
	<g>
		<linearGradient id="SVGID_1_" gradientUnits="userSpaceOnUse" x1="83.8354" y1="89.0962" x2="65.6171" y2="68.3382">
			<stop  offset="0.1598" style="stop-color:#B0B0AF"/>
			<stop  offset="1" style="stop-color:#FFFFFF"/>
		</linearGradient>
		<polygon fill="url(#SVGID_1_)" points="63.676,83.667 63.676,83.667 91.274,83.667 91.269,83.659 77.494,64.331 		"/>
		<linearGradient id="SVGID_2_" gradientUnits="userSpaceOnUse" x1="77.4941" y1="71.0151" x2="91.269" y2="71.0151">
			<stop  offset="0" style="stop-color:#FFFFFF"/>
			<stop  offset="1" style="stop-color:#B0B0AF"/>
		</linearGradient>
		<polygon fill="url(#SVGID_2_)" points="77.494,64.331 91.269,83.659 81.772,58.372 		"/>
		<linearGradient id="SVGID_3_" gradientUnits="userSpaceOnUse" x1="34.2622" y1="13.1172" x2="61.2007" y2="13.1172">
			<stop  offset="0" style="stop-color:#FFFFFF"/>
			<stop  offset="1" style="stop-color:#B0B0AF"/>
		</linearGradient>
		<polygon fill="url(#SVGID_3_)" points="61.201,3.667 34.262,3.667 47.729,22.567 		"/>
		<linearGradient id="SVGID_4_" gradientUnits="userSpaceOnUse" x1="47.7285" y1="23.4321" x2="62.436" y2="23.4321">
			<stop  offset="0" style="stop-color:#FFFFFF"/>
			<stop  offset="1" style="stop-color:#B0B0AF"/>
		</linearGradient>
		<polygon fill="url(#SVGID_4_)" points="62.436,43.197 61.246,3.758 61.201,3.674 61.21,3.667 61.201,3.667 61.201,3.667 
			47.729,22.567 		"/>
		<linearGradient id="SVGID_5_" gradientUnits="userSpaceOnUse" x1="61.4839" y1="76.4751" x2="70.6504" y2="51.9303">
			<stop  offset="0" style="stop-color:#B0B0AF"/>
			<stop  offset="0.7442" style="stop-color:#FFFFFF"/>
		</linearGradient>
		<polygon fill="url(#SVGID_5_)" points="63.676,83.667 77.494,64.331 62.436,43.197 		"/>
		<linearGradient id="SVGID_6_" gradientUnits="userSpaceOnUse" x1="71.9185" y1="48.9028" x2="64.3555" y2="29.8222">
			<stop  offset="0" style="stop-color:#FFFFFF"/>
			<stop  offset="1" style="stop-color:#B0B0AF"/>
		</linearGradient>
		<polygon fill="url(#SVGID_6_)" points="77.494,64.331 81.772,58.372 61.246,3.758 62.436,43.197 		"/>
		<linearGradient id="SVGID_7_" gradientUnits="userSpaceOnUse" x1="47.7637" y1="23.4863" x2="47.7637" y2="79.2226">
			<stop  offset="0" style="stop-color:#FFFFFF"/>
			<stop  offset="1" style="stop-color:#B0B0AF"/>
		</linearGradient>
		<polygon fill="url(#SVGID_7_)" points="62.436,43.197 47.729,22.567 33.075,43.127 31.852,83.659 47.729,40.418 63.602,83.667 
			63.667,83.667 63.676,83.667 		"/>
		<linearGradient id="SVGID_8_" gradientUnits="userSpaceOnUse" x1="33.0752" y1="23.397" x2="47.7285" y2="23.397">
			<stop  offset="0" style="stop-color:#FFFFFF"/>
			<stop  offset="1" style="stop-color:#B0B0AF"/>
		</linearGradient>
		<polygon fill="url(#SVGID_8_)" points="47.729,22.567 34.262,3.667 34.243,3.667 34.243,3.667 33.075,43.127 		"/>
		<linearGradient id="SVGID_9_" gradientUnits="userSpaceOnUse" x1="9.7324" y1="86.3462" x2="31.1897" y2="68.8787">
			<stop  offset="0" style="stop-color:#B0B0AF"/>
			<stop  offset="1" style="stop-color:#FFFFFF"/>
		</linearGradient>
		<polygon fill="url(#SVGID_9_)" points="4.189,83.641 4.18,83.667 31.847,83.667 17.964,64.321 		"/>
		<linearGradient id="SVGID_10_" gradientUnits="userSpaceOnUse" x1="34.6079" y1="73.9829" x2="21.6154" y2="45.0189">
			<stop  offset="0" style="stop-color:#B0B0AF"/>
			<stop  offset="0.5413" style="stop-color:#FFFFFF"/>
		</linearGradient>
		<polygon fill="url(#SVGID_10_)" points="17.964,64.321 31.847,83.667 31.852,83.667 31.852,83.659 33.075,43.127 		"/>
		<linearGradient id="SVGID_11_" gradientUnits="userSpaceOnUse" x1="4.189" y1="70.9966" x2="17.9639" y2="70.9966">
			<stop  offset="0" style="stop-color:#FFFFFF"/>
			<stop  offset="1" style="stop-color:#B0B0AF"/>
		</linearGradient>
		<polygon fill="url(#SVGID_11_)" points="13.691,58.352 4.189,83.641 17.964,64.321 		"/>
		<linearGradient id="SVGID_12_" gradientUnits="userSpaceOnUse" x1="19.6626" y1="55.8921" x2="27.7952" y2="37.0126">
			<stop  offset="0" style="stop-color:#FFFFFF"/>
			<stop  offset="1" style="stop-color:#B0B0AF"/>
		</linearGradient>
		<polygon fill="url(#SVGID_12_)" points="33.075,43.127 34.243,3.667 34.243,3.667 34.243,3.674 13.691,58.352 17.964,64.321 		"/>
		<linearGradient id="SVGID_13_" gradientUnits="userSpaceOnUse" x1="117.6372" y1="33.9194" x2="133.5811" y2="33.9194">
			<stop  offset="0" style="stop-color:#FFFFFF"/>
			<stop  offset="1" style="stop-color:#B0B0AF"/>
		</linearGradient>
		<path fill="url(#SVGID_13_)" d="M123.368,48.458c1.121-0.701,2.171-1.484,3.108-2.363c4.736-4.433,7.105-10.597,7.105-18.469
			c0-3.019-0.353-5.769-1.012-8.244l-14.932,21.008L123.368,48.458z"/>
		<linearGradient id="SVGID_14_" gradientUnits="userSpaceOnUse" x1="97.0444" y1="22.0278" x2="132.5688" y2="22.0278">
			<stop  offset="0" style="stop-color:#FFFFFF"/>
			<stop  offset="1" style="stop-color:#B0B0AF"/>
		</linearGradient>
		<path fill="url(#SVGID_14_)" d="M102.942,19.681c4.691,0.834,8.277,4.938,8.277,9.844l0,0c0,0.553-0.06,1.091-0.147,1.611
			l6.565,9.253l14.932-21.008c-1.034-3.802-2.868-6.962-5.504-9.492c-4.354-4.151-10.892-6.222-19.624-6.222h-5.282l-5.115,7.692
			L102.942,19.681z"/>
		<linearGradient id="SVGID_15_" gradientUnits="userSpaceOnUse" x1="108.9766" y1="46.4937" x2="123.3677" y2="46.4937">
			<stop  offset="0" style="stop-color:#FFFFFF"/>
			<stop  offset="1" style="stop-color:#B0B0AF"/>
		</linearGradient>
		<path fill="url(#SVGID_15_)" d="M117.637,40.389l-8.661,12.209c5.855-0.432,10.659-1.811,14.391-4.141L117.637,40.389z"/>
		<linearGradient id="SVGID_16_" gradientUnits="userSpaceOnUse" x1="91.5972" y1="15.52" x2="102.9414" y2="15.52">
			<stop  offset="0" style="stop-color:#FFFFFF"/>
			<stop  offset="1" style="stop-color:#B0B0AF"/>
		</linearGradient>
		<path fill="url(#SVGID_16_)" d="M101.224,19.531c0.597,0,1.168,0.062,1.718,0.149l-5.898-8.321l-5.446,8.172h6.846H101.224z"/>
		<linearGradient id="SVGID_17_" gradientUnits="userSpaceOnUse" x1="78.6826" y1="41.9419" x2="117.6372" y2="41.9419">
			<stop  offset="0" style="stop-color:#B0B0AF"/>
			<stop  offset="0.5413" style="stop-color:#FFFFFF"/>
		</linearGradient>
		<path fill="url(#SVGID_17_)" d="M111.072,31.136c-0.775,4.742-4.905,8.389-9.848,8.389H78.683l14.213,13.224h11.891
			c1.445,0,2.835-0.055,4.19-0.15l8.661-12.209L111.072,31.136z"/>
		<linearGradient id="SVGID_18_" gradientUnits="userSpaceOnUse" x1="91.5288" y1="11.5991" x2="97.0444" y2="11.5991">
			<stop  offset="0" style="stop-color:#FFFFFF"/>
			<stop  offset="1" style="stop-color:#B0B0AF"/>
		</linearGradient>
		<polygon fill="url(#SVGID_18_)" points="91.579,3.667 91.529,3.667 91.529,19.531 91.579,19.531 91.598,19.531 97.044,11.359 		
			"/>
		<linearGradient id="SVGID_19_" gradientUnits="userSpaceOnUse" x1="91.5786" y1="7.5132" x2="102.1592" y2="7.5132">
			<stop  offset="0" style="stop-color:#FFFFFF"/>
			<stop  offset="1" style="stop-color:#B0B0AF"/>
		</linearGradient>
		<polygon fill="url(#SVGID_19_)" points="102.159,3.667 91.579,3.667 97.044,11.359 		"/>
		<linearGradient id="SVGID_20_" gradientUnits="userSpaceOnUse" x1="78.542" y1="61.5825" x2="92.8965" y2="61.5825">
			<stop  offset="0" style="stop-color:#FFFFFF"/>
			<stop  offset="1" style="stop-color:#B0B0AF"/>
		</linearGradient>
		<polygon fill="url(#SVGID_20_)" points="78.542,39.524 92.896,83.641 92.896,52.782 78.683,39.524 		"/>
	</g>
	<g>
		<path fill="#FFFFFF" d="M153.81,61.308V6.323h6.531v54.984L153.81,61.308L153.81,61.308z"/>
		<path fill="#FFFFFF" d="M171.596,60.833V3.667l40.213,43.945V5.848h6.239v57.122l-40.227-43.455v41.318H171.596L171.596,60.833z"
			/>
		<path fill="#FFFFFF" d="M262.069,32.915h22.677v1.841c0,8.66-2.455,15.495-7.355,20.497c-4.902,5.014-11.607,7.519-20.087,7.519
			c-2.584,0-5.05-0.274-7.392-0.829c-2.333-0.549-4.496-1.35-6.475-2.4c-4.511-2.482-7.991-5.904-10.439-10.279
			c-2.457-4.357-3.68-9.328-3.68-14.883c0-4.583,0.723-8.719,2.194-12.415c1.465-3.7,3.676-6.945,6.625-9.746
			c2.477-2.354,5.362-4.129,8.646-5.335c3.279-1.197,6.91-1.809,10.889-1.809c5.288,0,9.872,0.96,13.752,2.879
			c3.875,1.916,7.089,4.803,9.647,8.659l-5.487,4.396c-1.979-3.325-4.446-5.828-7.384-7.495c-2.969-1.665-6.395-2.5-10.308-2.5
			c-6.384,0-11.56,2.155-15.542,6.462c-3.986,4.308-5.97,9.941-5.97,16.904c0,6.558,2.027,11.945,6.07,16.15
			c4.027,4.2,9.195,6.307,15.442,6.307c5.516,0,10.095-1.67,13.769-5.006c3.668-3.349,5.71-7.702,6.098-13.056h-15.688V32.915
			L262.069,32.915z"/>
		<path fill="#FFFFFF" d="M292.718,61.308V6.323h28.998v5.968h-22.471v15.778h22.471v6.085h-22.471v21.069h22.471v6.084
			L292.718,61.308L292.718,61.308z"/>
		<path fill="#FFFFFF" d="M332.46,61.308V4.146l40.219,43.942V6.323h6.242v57.121l-40.23-43.45v41.313L332.46,61.308L332.46,61.308z
			"/>
		<path fill="#FFFFFF" d="M393.378,61.308V6.323h6.535v54.984L393.378,61.308L393.378,61.308z"/>
		<path fill="#FFFFFF" d="M410.875,61.308V6.323h28.998v5.968h-22.455v15.778h22.455v6.085h-22.455v21.069h22.455v6.084
			L410.875,61.308L410.875,61.308z"/>
		<path fill="#FFFFFF" d="M450.541,61.308V6.323h12.914c3.684,0,6.379,0.206,8.1,0.614c1.713,0.421,3.225,1.125,4.52,2.121
			c1.635,1.279,2.898,2.995,3.797,5.133c0.898,2.145,1.357,4.51,1.357,7.112c0,4.506-1.264,7.938-3.783,10.275
			c-2.514,2.345-6.199,3.513-11.059,3.513h-1.17l20.996,26.216h-8.287l-20.057-26.216h-0.945v26.216L450.541,61.308L450.541,61.308z
			 M456.925,11.84v18.403h4.992c5.115,0,8.52-0.656,10.256-1.969c1.729-1.317,2.592-3.613,2.592-6.891
			c0-3.527-0.891-6.005-2.666-7.419c-1.777-1.418-5.174-2.125-10.182-2.125L456.925,11.84L456.925,11.84z"/>
		<path fill="#FFFFFF" d="M490.271,61.308V6.323h6.541v54.984L490.271,61.308L490.271,61.308z"/>
		<path fill="#FFFFFF" d="M527.476,4.146l25.01,57.162h-7.092l-7.145-16.867h-21.479l-7.139,16.867h-7.102L527.476,4.146z
			 M527.476,18.603l-8.754,20.25h17.498L527.476,18.603z"/>
	</g>
	<g>
		<path fill="#FFFFFF" d="M152.707,68.377h4.498c2.728,0,4.608,1.402,4.608,3.797v0.035c0,2.604-2.25,3.945-4.838,3.945h-3.349
			v4.625h-0.918L152.707,68.377L152.707,68.377z M157.029,75.309c2.301,0,3.861-1.205,3.861-3.049v-0.033
			c0-1.971-1.523-2.998-3.755-2.998h-3.509v6.08H157.029z"/>
		<path fill="#FFFFFF" d="M175.175,71.749h0.867v2.567c0.708-1.61,2.215-2.782,4.004-2.713v0.957h-0.088
			c-2.091,0-3.916,1.575-3.916,4.521v3.699h-0.867V71.749z"/>
		<path fill="#FFFFFF" d="M193.413,76.299v-0.035c0-2.535,1.964-4.73,4.655-4.73c2.675,0,4.625,2.164,4.625,4.693v0.037
			c0,2.535-1.967,4.729-4.659,4.729C195.358,80.991,193.413,78.829,193.413,76.299z M201.754,76.299v-0.035
			c0-2.18-1.63-3.912-3.719-3.912c-2.145,0-3.684,1.752-3.684,3.875v0.037c0,2.177,1.629,3.914,3.717,3.914
			C200.213,80.178,201.754,78.428,201.754,76.299z"/>
		<path fill="#FFFFFF" d="M224.085,71.749h0.955l-3.915,9.352c-0.796,1.896-1.718,2.566-3.012,2.566
			c-0.691,0-1.188-0.119-1.787-0.385l0.299-0.765c0.48,0.229,0.868,0.336,1.542,0.336c0.939,0,1.558-0.55,2.231-2.125l-4.34-8.979
			h1.009l3.757,8.078L224.085,71.749z"/>
		<path fill="#FFFFFF" d="M238.406,76.284v-0.039c0-2.621,1.844-4.711,4.287-4.711c2.535,0,4.147,2.053,4.147,4.729
			c0,0.16,0,0.212-0.02,0.355h-7.493c0.159,2.25,1.772,3.561,3.542,3.561c1.4,0,2.358-0.617,3.098-1.418l0.603,0.535
			c-0.917,0.988-2.002,1.695-3.736,1.695C240.459,80.991,238.406,79.098,238.406,76.284z M245.901,75.838
			c-0.129-1.824-1.169-3.506-3.242-3.506c-1.791,0-3.173,1.504-3.332,3.506H245.901z"/>
		<path fill="#FFFFFF" d="M260.203,76.299v-0.035c0-2.535,2.021-4.73,4.608-4.73c1.698,0,2.764,0.778,3.612,1.668l-0.619,0.635
			c-0.781-0.797-1.664-1.483-3.013-1.483c-2.055,0-3.647,1.715-3.647,3.875v0.036c0,2.178,1.645,3.914,3.721,3.914
			c1.275,0,2.268-0.65,3.027-1.506l0.603,0.533c-0.92,1.045-2.017,1.787-3.684,1.787C262.205,80.991,260.203,78.829,260.203,76.299z
			"/>
		<path fill="#FFFFFF" d="M283.171,78.461v-5.916h-1.313v-0.797h1.313v-2.887h0.867v2.887h3.174v0.797h-3.174v5.826
			c0,1.295,0.764,1.756,1.808,1.756c0.444,0,0.815-0.09,1.331-0.32v0.816c-0.463,0.211-0.908,0.315-1.471,0.315
			C284.306,80.939,283.171,80.178,283.171,78.461z"/>
		<path fill="#FFFFFF" d="M300.576,76.299v-0.035c0-2.535,1.967-4.73,4.664-4.73c2.672,0,4.623,2.164,4.623,4.693v0.037
			c0,2.535-1.971,4.729-4.662,4.729C302.526,80.991,300.576,78.829,300.576,76.299z M308.923,76.299v-0.035
			c0-2.18-1.631-3.912-3.723-3.912c-2.143,0-3.685,1.752-3.685,3.875v0.037c0,2.177,1.631,3.914,3.722,3.914
			C307.38,80.178,308.923,78.428,308.923,76.299z"/>
		<path fill="#FFFFFF" d="M323.224,79.644l0.516-0.687c0.992,0.76,2.092,1.182,3.238,1.182c1.225,0,2.186-0.67,2.186-1.711v-0.039
			c0-1.063-1.139-1.449-2.396-1.805c-1.469-0.43-3.1-0.867-3.1-2.48v-0.037c0-1.453,1.223-2.494,2.975-2.494
			c1.082,0,2.307,0.387,3.205,0.988l-0.455,0.727c-0.834-0.551-1.826-0.904-2.783-0.904c-1.242,0-2.059,0.675-2.059,1.576v0.035
			c0,1.012,1.227,1.387,2.52,1.754c1.451,0.408,2.975,0.941,2.975,2.535v0.035c0,1.613-1.379,2.641-3.117,2.641
			C325.617,80.959,324.181,80.424,323.224,79.644z"/>
		<path fill="#FFFFFF" d="M373.82,68.288h0.887l5.775,12.492h-1.01l-1.576-3.47h-7.316l-1.576,3.47h-0.959L373.82,68.288z
			 M377.503,76.475l-3.258-7.174l-3.279,7.174H377.503z"/>
		<path fill="#FFFFFF" d="M393.847,71.749h1.01l3.418,8.059l3.453-8.059h0.977l-4.059,9.104h-0.74L393.847,71.749z"/>
		<path fill="#FFFFFF" d="M416.068,78.159v-0.035c0-1.879,1.609-2.943,3.949-2.943c1.258,0,2.125,0.162,2.992,0.393V75.18
			c0-1.822-1.115-2.76-2.973-2.76c-1.102,0-2.004,0.297-2.836,0.727l-0.32-0.764c0.99-0.459,1.967-0.779,3.207-0.779
			c1.223,0,2.197,0.338,2.854,0.992c0.602,0.605,0.92,1.436,0.92,2.553v5.633h-0.852v-1.506c-0.621,0.863-1.734,1.717-3.455,1.717
			C417.873,80.991,416.068,80.038,416.068,78.159z M423.029,77.396V76.37c-0.762-0.195-1.771-0.408-3.064-0.408
			c-1.912,0-2.975,0.854-2.975,2.111v0.032c0,1.313,1.238,2.071,2.619,2.071C421.453,80.178,423.029,79.045,423.029,77.396z"/>
		<path fill="#FFFFFF" d="M437.226,71.749h0.867v1.682c0.604-1.064,1.615-1.896,3.26-1.896c2.285,0,3.615,1.559,3.615,3.719v5.529
			h-0.867v-5.367c0-1.861-1.045-3.082-2.873-3.082c-1.77,0-3.135,1.346-3.135,3.223v5.227h-0.867V71.749L437.226,71.749z"/>
		<path fill="#FFFFFF" d="M458.333,80.284l6.518-7.759h-6.268v-0.776h7.561v0.492l-6.52,7.76h6.52v0.779h-7.813v-0.496H458.333z"/>
		<path fill="#FFFFFF" d="M479.509,78.159v-0.035c0-1.879,1.613-2.943,3.953-2.943c1.258,0,2.125,0.162,2.992,0.393V75.18
			c0-1.822-1.115-2.76-2.977-2.76c-1.098,0-2,0.297-2.834,0.727l-0.318-0.764c0.994-0.459,1.967-0.779,3.207-0.779
			c1.223,0,2.197,0.338,2.854,0.992c0.604,0.605,0.922,1.436,0.922,2.553v5.633h-0.852v-1.506c-0.619,0.863-1.734,1.717-3.457,1.717
			C481.318,80.991,479.509,80.038,479.509,78.159z M486.47,77.396V76.37c-0.76-0.195-1.77-0.408-3.063-0.408
			c-1.914,0-2.979,0.854-2.979,2.111v0.032c0,1.313,1.242,2.071,2.623,2.071C484.896,80.178,486.47,79.045,486.47,77.396z"/>
		<path fill="#FFFFFF" d="M500.671,76.299v-0.035c0-2.941,2.217-4.73,4.396-4.73c1.807,0,2.975,1.027,3.719,2.164v-5.85h0.867V80.78
			h-0.867v-2.02c-0.781,1.188-1.932,2.23-3.719,2.23C502.888,80.991,500.671,79.237,500.671,76.299z M508.839,76.284v-0.039
			c0-2.32-1.807-3.879-3.684-3.879c-1.969,0-3.545,1.438-3.545,3.86v0.036c0,2.375,1.648,3.898,3.545,3.898
			C507.033,80.163,508.839,78.588,508.839,76.284z"/>
		<path fill="#FFFFFF" d="M523.017,76.299v-0.035c0-2.535,1.967-4.73,4.658-4.73c2.676,0,4.625,2.164,4.625,4.693v0.037
			c0,2.535-1.967,4.729-4.658,4.729C524.97,80.991,523.017,78.829,523.017,76.299z M531.363,76.299v-0.035
			c0-2.18-1.633-3.912-3.721-3.912c-2.143,0-3.686,1.752-3.686,3.875v0.037c0,2.177,1.629,3.914,3.719,3.914
			C529.822,80.178,531.363,78.428,531.363,76.299z"/>
		<path fill="#FFFFFF" d="M545.666,79.644l0.512-0.687c0.994,0.76,2.092,1.182,3.246,1.182c1.219,0,2.176-0.67,2.176-1.711v-0.039
			c0-1.063-1.133-1.449-2.391-1.805c-1.467-0.43-3.1-0.867-3.1-2.48v-0.037c0-1.453,1.223-2.494,2.979-2.494
			c1.078,0,2.301,0.387,3.207,0.988l-0.465,0.727c-0.83-0.551-1.824-0.904-2.781-0.904c-1.24,0-2.055,0.675-2.055,1.576v0.035
			c0,1.012,1.223,1.387,2.516,1.754c1.455,0.408,2.979,0.941,2.979,2.535v0.035c0,1.613-1.385,2.641-3.121,2.641
			C548.056,80.959,546.621,80.424,545.666,79.644z"/>
	</g>
</g>
</svg>
